<?xml version="1.0" encoding="UTF-8"?> <svg xmlns="http://www.w3.org/2000/svg" fill="none" viewBox="0 0 55 54" width="55" height="54"><g clip-path="url(#clip0)" fill="#F5F6FA"><path d="M33.4 53H.5V11.3L11.7 0h32.1v22.1h-2.5V2.6H12.8L3 12.4v38h30.3V53z"></path><path d="M13.5 13.1H1.8v-2.5H11V1.3h2.5v11.8zM35.2 6.7H18.6v2.6h16.6V6.7zM35.2 11.8H18.6v2.6h16.6v-2.6zM35 17H8v2.6h27V17zM35 22.1H8v2.6h27v-2.6zM28 27.3H8v2.6h20v-2.6zM28 32.4H8V35h20v-2.6zM28 37.6H8V40h20v-2.5zM28 42.7H8v2.6h20v-2.6zM42.6 52c-4.4 0-8.2-3.6-10.2-6-1-1-1.6-2.5-1.6-4V28.7c0-.5.3-.7.6-1 .2-.3.7-.3 1-.3 6.8 1.6 9.1-1.5 9.4-1.8a2 2 0 011-.5c.5 0 .8.3 1 .5 0 0 2.3 3.1 9.5 1.6.2 0 .7 0 1 .2.2.3.5.6.5 1v13.2c0 1.5-.5 3-1.5 4.1-2.6 2.3-6.4 6.2-10.7 6.2zM33 30v11.6c0 1 .3 1.8 1 2.3 1.6 1.5 5.1 5.1 8.5 5.1 3.3 0 7-3.6 8.4-5.1.5-.5 1-1.5 1-2.3V30c-5.1.8-8-.8-9.4-2-1.3 1.2-4.4 2.8-9.5 2z"></path><path d="M41.8 44l-5.9-4.6 1.6-2 4 3.3 6.7-7 1.7 1.8-8.1 8.5z"></path></g><defs><clipPath id="clip0"><path fill="#fff" d="M.5 0h54v53H.5z"></path></clipPath></defs></svg> 