<?xml version="1.0" encoding="UTF-8"?> <svg xmlns="http://www.w3.org/2000/svg" fill="none" viewBox="0 0 56 58" width="56" height="58"><path d="M12 57.7c-.5 0-1.2-.5-1.2-1-.8-4-3-6.4-5.2-8.6C3 45.4.4 42.6.4 38.2a11.3 11.3 0 1122.7 0c0 4.4-2.5 7.2-5.2 9.9-2.2 2.4-4.4 5-5.2 8.6.5.8 0 1-.7 1zm-.5-28.6c-5 0-8.9 4-8.9 8.9 0 3.4 2 5.6 4.5 8.1a24 24 0 014.7 6.2 24 24 0 014.7-6.2c2.4-2.5 4.4-4.7 4.4-8.1a9.6 9.6 0 00-9.4-9z" fill="#F5F6FA"></path><path d="M12 42.6a5 5 0 01-5-4.9 5 5 0 015-5 5 5 0 015 5 5 5 0 01-5 5zm0-7.4a2.5 2.5 0 000 5c1.2 0 2.5-1 2.5-2.5s-1-2.5-2.5-2.5zM20.6 21.4c-.7 0-1.2-.5-1.2-1.2V1.5c0-.8.5-1.3 1.2-1.3.8 0 1.3.5 1.3 1.3v18.7c0 .7-.5 1.2-1.3 1.2z" fill="#F5F6FA"></path><path d="M20.6 13.3c-.2 0-.5 0-.7-.3-.3-.2-.5-.7-.5-1V3c0-.6.2-.8.5-1 .2-.3.7-.3 1.2 0l11.1 4.4c.5.2.8.7.8 1.2s-.3 1-.8 1.3l-11 4.1c-.3 0-.3.3-.6.3zM22 4.7V10l6.6-2.7L22 4.7zM20.6 26.4c-2 0-3.7-1.8-3.7-3.7 0-2 1.8-3.7 3.7-3.7 2 0 3.7 1.7 3.7 3.7s-1.7 3.7-3.7 3.7zm0-5c-.7 0-1.2.5-1.2 1.3 0 .7.5 1.2 1.2 1.2.8 0 1.3-.5 1.3-1.2 0-.8-.5-1.3-1.3-1.3z" fill="#F5F6FA"></path><path d="M40.6 57.7H12v-2.5h28.6a2.2 2.2 0 000-4.4H28a4.7 4.7 0 110-9.4h22.5a2.2 2.2 0 000-4.4H33a4.7 4.7 0 110-9.4h15a2.2 2.2 0 000-4.4H23v-2.5h25a4.7 4.7 0 110 9.4H33c-1.3 0-2.3 1-2.3 2.2 0 1.2 1 2.2 2.3 2.2h17.5a4.7 4.7 0 110 9.4H28a2.2 2.2 0 000 4.4h12.6a4.7 4.7 0 110 9.4z" fill="#F5F6FA"></path></svg> 