<?xml version="1.0" encoding="UTF-8"?> <svg xmlns="http://www.w3.org/2000/svg" fill="none" viewBox="0 0 138 34" width="138" height="34"><path d="M68.3 1.7c.2-.4.8-.4 1 0l4.2 9.9.4.3 10.6 1c.4 0 .6.5.3.8l-8 7c-.2.2-.2.4-.2.5L79 31.7c0 .4-.4.7-.8.5L69 26.7h-.5l-9.2 5.5a.5.5 0 01-.7-.5L61 21.2c0-.1 0-.3-.2-.4l-8-7.1a.5.5 0 01.3-.9l10.6-1c.2 0 .3 0 .4-.2l4.2-9.9z" stroke="#F5F6FA" stroke-width="2.6"></path><path d="M100.7 9c.1-.4.6-.4.7 0l3.2 7.4c0 .2.2.2.3.3l8.2.7c.3 0 .4.5.2.7l-6.1 5.4-.2.3 1.8 8c.1.3-.2.6-.5.4l-7-4.2h-.4l-7 4.2c-.3.2-.7 0-.6-.4l1.8-8-.1-.3-6.2-5.4a.4.4 0 01.2-.7l8.2-.7.3-.3 3.2-7.5zM36.2 9c.1-.4.5-.4.7 0l3.2 7.4c0 .2.2.2.3.3l8.1.7c.4 0 .5.5.3.7l-6.2 5.4-.1.3 1.8 8c0 .3-.3.6-.6.4l-7-4.2h-.4l-7 4.2c-.3.2-.6 0-.6-.4l1.8-8v-.3L24.2 18a.4.4 0 01.2-.7l8.1-.7c.2 0 .3-.1.3-.3L36.2 9z" stroke="#fff" stroke-width="2.6"></path><path d="M10.7 14.4c.1-.2.4-.2.5 0l2.5 5.8.2.1 6.3.6c.2 0 .3.4.1.5l-4.7 4.1v.3l1.3 6.1c0 .3-.2.4-.4.3L11 29h-.3l-5.3 3.2c-.3.1-.5 0-.5-.3l1.4-6v-.4l-4.8-4c-.2-.2 0-.6.2-.6l6.2-.6.2-.1 2.5-5.8zM126.3 14.4c.1-.2.5-.2.6 0l2.4 5.8.3.1 6.2.6c.2 0 .3.4.2.5l-4.7 4.1c-.1.1-.2.2-.1.3l1.3 6.1c.1.3-.2.4-.4.3l-5.3-3.2h-.3l-5.4 3.2c-.2.1-.5 0-.4-.3l1.3-6v-.4l-4.7-4c-.2-.2-.1-.6.1-.6l6.2-.6.3-.1 2.4-5.8z" stroke="#F5F6FA" stroke-width="2.6"></path></svg> 