<?xml version="1.0" encoding="UTF-8"?> <svg xmlns="http://www.w3.org/2000/svg" fill="none" viewBox="0 0 54 51" width="54" height="51"><g clip-path="url(#clip0)"><path d="M14.3 17.6a39.6 39.6 0 0026.1 0c.5 0 .7-.6.7-1.2v-3.7c0-.6-.3-1-1-1.2h-1A12 12 0 0031 1.6C30.6.7 29.7.1 28.6.1h-2.5c-1 0-2 .6-2.5 1.5a12 12 0 00-8 9.7l-1 .1c-.7.1-1.1.7-1.1 1.3v3.7c0 .6.2 1 .8 1.2zm1.5-3.8l1-.1c.6-.2 1.1-.6 1.1-1.1a9.5 9.5 0 015.5-8v7.7h2.3V2.8l.4-.3h2.5c.2 0 .4.2.4.3v9.4h2.4V4.4a9.4 9.4 0 015.4 8c0 .6.4 1.1 1 1.1l1.1.2v1.8a40.2 40.2 0 01-23 0v-1.7zm35.9 26.1s-4.6-1.6-9.8-2.9c-5.4-1.7-6.4-4.8-6.7-5.8 1.5-1.6 2.1-3.6 2.5-5.2 1.9-.4 2.3-3 2.4-4l.1-1.3-2.5.7v.2c-.2 1.5-.5 2-.6 2.1h-.4c-.6 0-1 .4-1.2 1.1a9.5 9.5 0 01-2.4 5.3c-1.3 1.3-3.3 2-5.8 2-2.4 0-4.3-.7-5.7-2a8.7 8.7 0 01-2.3-5.3c-.2-.5-.6-1-1-1h-.5c-.1-.2-.4-.7-.6-2.2v-.2l-2.6-.7.2 1.3c.1 1 .6 3.6 2.4 4 .4 1.6 1 3.6 2.5 5.2-.3 1.2-1.2 4-6.6 5.8L3 40A3.6 3.6 0 001 43.7l1 6.7h2.3l-.9-7c0-.5.3-.9.5-1 0 0 4.5-1.5 9.8-3 .3 0 .4 0 .7-.2 3.1 2.8 7.5 4.3 12.5 4.3h.5c5.4.1 9.9-1.4 13.2-4.3l.6.3c5.2 1.4 9.7 3 9.8 3 .4 0 .7.4.5.8l-.9 7H53l1-6.7c.2-1.6-.8-3.2-2.2-3.6zm-24.4 1c-4.3 0-7.9-1-10.7-3 3-1.6 4.2-3.7 5-5.1 1.5.9 3.3 1.4 5.4 1.4h.3c2.2 0 4.2-.4 5.8-1.4a9.7 9.7 0 004.9 5.1c-2.8 2-6.3 3-10.7 3z" fill="#F5F6FA"></path></g><defs><clipPath id="clip0"><path fill="#fff" d="M.8.1h53v50H.8z"></path></clipPath></defs></svg> 